<svg width="27" height="27" viewBox="0 0 27 27" fill="none" xmlns="http://www.w3.org/2000/svg">
<rect x="0.923096" y="0.963013" width="25.1538" height="25.1538" rx="4" fill="#D9D9D9" fill-opacity="0.15"/>
<path d="M7.15145 9.05947C7.10287 9.09775 7.05458 9.13635 7.00663 9.17533C6.26627 9.77723 6.05927 10.7857 6.34611 11.6957C8.2684 17.7942 11.1845 20.2404 16.4547 21.6655C17.2166 21.8715 18.049 21.7556 18.6442 21.2373C18.8156 21.0882 18.9753 20.9336 19.1256 20.7723C19.9469 19.8914 19.813 18.5044 18.9578 17.6564C18.6919 17.3927 18.4172 17.1469 18.1102 16.8978C17.5049 16.4065 16.635 16.4612 16.045 16.9707C15.5251 17.4197 14.7802 17.5206 14.1853 17.177C12.6382 16.2835 11.7421 15.386 10.8944 13.9033C10.5455 13.2929 10.6302 12.5349 11.0556 11.9752C11.5886 11.2738 11.5676 10.285 10.9542 9.65267C10.7845 9.47769 10.6182 9.31353 10.4495 9.15453C9.54819 8.30486 8.1244 8.29283 7.15145 9.05947Z" stroke="white" stroke-linejoin="bevel"/>
<path d="M14.4246 9.84075C15.4402 9.92539 17.6409 10.8056 18.318 13.6495M14.5938 6.96301C16.3431 7.1605 20.1123 8.74044 21.1957 13.4802" stroke="white" stroke-linecap="round" stroke-linejoin="bevel"/>
</svg>
