<svg width="27" height="26" viewBox="0 0 27 26" fill="none" xmlns="http://www.w3.org/2000/svg">
<rect x="0.923096" y="0.809204" width="25.1538" height="25.1538" rx="4" fill="#D9D9D9" fill-opacity="0.15"/>
<g clip-path="url(#clip0_42_476)">
<path d="M16.9124 12.9471L21.0131 9.38443V16.4691L16.9124 12.9471ZM11.6284 13.5504L13.0684 14.8004C13.2944 14.9924 13.5891 15.1084 13.9111 15.1084H13.9224H13.9311C14.2538 15.1084 14.5484 14.9918 14.7771 14.7984L14.7751 14.7998L16.2151 13.5498L20.5924 17.3091H7.2531L11.6284 13.5504ZM7.2471 8.53976H20.6004L14.1864 14.1104C14.1146 14.168 14.0252 14.1991 13.9331 14.1984H13.9238H13.9151C13.8227 14.1991 13.733 14.1678 13.6611 14.1098L13.6618 14.1104L7.2471 8.53976ZM6.8331 9.38376L10.9331 12.9464L6.8331 16.4664V9.38376ZM21.2331 7.75643C21.0731 7.67643 20.8851 7.62976 20.6858 7.62976H7.16243C6.96929 7.63053 6.77888 7.67545 6.60576 7.76109L6.6131 7.75776C6.40634 7.86008 6.23223 8.01805 6.11033 8.21391C5.98844 8.40976 5.9236 8.63574 5.9231 8.86643V16.9811C5.92345 17.3095 6.05406 17.6244 6.28628 17.8566C6.5185 18.0888 6.83336 18.2194 7.16176 18.2198H20.6838C21.0122 18.2194 21.327 18.0888 21.5592 17.8566C21.7915 17.6244 21.9221 17.3095 21.9224 16.9811V8.86643C21.9224 8.38176 21.6431 7.96176 21.2364 7.75976L21.2291 7.75643H21.2331Z" fill="white"/>
</g>
<defs>
<clipPath id="clip0_42_476">
<rect width="16" height="12" fill="white" transform="translate(5.9231 6.96301)"/>
</clipPath>
</defs>
</svg>
