<svg width="281" height="64" viewBox="0 0 281 64" fill="none" xmlns="http://www.w3.org/2000/svg">
<g clip-path="url(#clip0_73_17)">
<path d="M9.56306 50.2835C7.62288 48.1426 6.0472 45.7308 4.86616 43.0838C3.3034 39.5874 2.5127 35.8585 2.5127 31.9986C2.5127 16.908 14.8727 4.6311 30.0655 4.6311C35.8329 4.6311 41.4483 6.43422 46.105 9.74683C36.2362 24.0292 24.6554 35.4281 12.4245 47.4655C11.4846 48.3906 10.526 49.3342 9.56449 50.2821L9.56306 50.2835Z" fill="#040404"/>
<path d="M30.0641 7.12705C33.0849 7.12705 36.0339 7.65444 38.8337 8.69498C40.1252 9.17533 41.368 9.75689 42.5547 10.4382C33.1409 23.5661 22.1886 34.3449 10.6552 45.6967C10.3596 45.9874 10.0639 46.2797 9.76546 46.5733C8.74515 45.1735 7.87407 43.6712 7.16086 42.0748C5.7416 38.899 5.02265 35.5094 5.02265 32.0015C5.02265 25.3578 7.62725 19.1117 12.3571 14.4136C17.087 9.71556 23.3754 7.12847 30.0641 7.12847M30.0641 2.13818C13.4607 2.13818 0 15.5083 0 32.0001C0 40.6123 3.67227 48.3721 9.54446 53.8214C23.7729 39.73 37.9511 26.4981 49.496 9.21524C44.2553 4.80081 37.4732 2.13818 30.0641 2.13818Z" fill="white"/>
<path d="M31.4992 61.5056C25.3672 61.5056 19.4879 59.5029 14.6833 55.8183C15.5932 54.9203 16.5015 54.0266 17.3927 53.15C29.6695 41.0669 41.3019 29.6182 51.3601 15.1719C56.278 20.2505 59.052 27.0211 59.052 34.1381C59.052 49.2287 46.692 61.5056 31.4992 61.5056Z" fill="#040404"/>
<path d="M51.5424 19.2285C54.7612 23.4933 56.5406 28.7045 56.5406 34.1381C56.5406 40.7819 53.936 47.0279 49.2061 51.726C44.4762 56.4241 38.1879 59.0112 31.4992 59.0112C26.907 59.0112 22.4699 57.7754 18.6067 55.4648C18.7919 55.2824 18.977 55.1013 19.1607 54.9203C30.2665 43.9904 41.708 32.7284 51.5424 19.2285ZM50.9311 11.3533C39.3861 28.6361 25.2079 41.868 10.9795 55.9594C16.3523 60.9454 23.5662 64 31.4992 64C48.1026 64 61.5633 50.6299 61.5633 34.1381C61.5633 25.0057 57.4347 16.831 50.9311 11.3533Z" fill="#216FFF"/>
<path d="M52.0925 -0.000642413L1.95581 49.7988L13.8636 61.6266L64.0003 11.8271L52.0925 -0.000642413Z" fill="#040404"/>
<path d="M2.78687 58.3539L39.6129 23.9878L5.10446 60.6574L2.78687 58.3539Z" fill="#040404"/>
<path d="M53.1955 8.58643C52.7291 8.58643 52.2642 8.75747 51.9025 9.09529L0.598351 56.9741C-0.178007 57.6982 -0.196662 58.9184 0.556735 59.6667L3.78701 62.8752C4.15582 63.2416 4.63943 63.424 5.1216 63.424C5.60378 63.424 6.129 63.2245 6.50068 62.8296L54.5746 11.7422C55.3251 10.944 55.2333 9.68112 54.3751 8.99836C54.0293 8.72326 53.6117 8.58785 53.1969 8.58785L53.1955 8.58643Z" fill="white"/>
<path d="M55.3208 12.8998C52.9472 12.8998 51.0156 10.9812 51.0156 8.62358C51.0156 6.26599 52.9472 4.34741 55.3208 4.34741C57.6943 4.34741 59.6259 6.26599 59.6259 8.62358C59.6259 10.9812 57.6943 12.8998 55.3208 12.8998Z" fill="white"/>
<path d="M55.3208 6.84189C56.3096 6.84189 57.1146 7.64154 57.1146 8.62363C57.1146 9.60572 56.3096 10.4054 55.3208 10.4054C54.3321 10.4054 53.527 9.60572 53.527 8.62363C53.527 7.64154 54.3321 6.84189 55.3208 6.84189ZM55.3208 1.85303C51.5567 1.85303 48.5044 4.88483 48.5044 8.62363C48.5044 12.3624 51.5567 15.3942 55.3208 15.3942C59.085 15.3942 62.1373 12.3624 62.1373 8.62363C62.1373 4.88483 59.085 1.85303 55.3208 1.85303Z" fill="white"/>
<path d="M42.9751 40.8347L46.0432 18.3948C46.0906 18.047 45.8667 17.7191 45.5237 17.6365C45.2539 17.5709 45.3314 17.5353 45.198 17.4825C44.8177 17.3343 44.3943 17.5695 44.2953 17.9629L38.7173 40.1291C38.6183 40.5211 38.8795 40.9116 39.2813 40.9744L42.1829 41.4219C42.5647 41.4804 42.922 41.2167 42.9736 40.8361L42.9751 40.8347Z" fill="white"/>
<path d="M24.159 24.9786L46.184 19.1231C46.5256 19.0319 46.7437 18.7012 46.6877 18.3549C46.6447 18.0812 46.7078 18.1396 46.705 17.9971C46.6949 17.5923 46.3146 17.2944 45.9099 17.3557L23.1703 20.8051C22.7685 20.8664 22.5058 21.257 22.6034 21.6489L23.3095 24.4798C23.4027 24.8532 23.7859 25.077 24.159 24.9786Z" fill="white"/>
</g>
<path d="M78.016 44V21.312H82.144L90.848 34.464H88.896L97.568 21.312H101.696V44H96.032V30.784L96.928 31.04L91.712 38.88H88L82.816 31.04L83.712 30.784V44H78.016ZM106.375 44V21.312H112.103V44H106.375ZM120.637 44V39.072H126.077C127.357 39.072 128.466 38.8267 129.405 38.336C130.365 37.8453 131.101 37.12 131.613 36.16C132.125 35.1787 132.381 33.9947 132.381 32.608C132.381 31.2427 132.114 30.0907 131.581 29.152C131.069 28.192 130.343 27.4667 129.405 26.976C128.466 26.4853 127.357 26.24 126.077 26.24H120.381V21.312H126.109C127.858 21.312 129.469 21.5893 130.941 22.144C132.413 22.6773 133.693 23.4453 134.781 24.448C135.869 25.4507 136.711 26.6453 137.309 28.032C137.927 29.4187 138.237 30.9547 138.237 32.64C138.237 34.3467 137.927 35.8933 137.309 37.28C136.711 38.6667 135.869 39.8613 134.781 40.864C133.693 41.8667 132.413 42.6453 130.941 43.2C129.49 43.7333 127.901 44 126.173 44H120.637ZM116.765 44V21.312H122.493V44H116.765ZM145.62 44V39.072H151.06C152.34 39.072 153.45 38.8267 154.388 38.336C155.348 37.8453 156.084 37.12 156.596 36.16C157.108 35.1787 157.364 33.9947 157.364 32.608C157.364 31.2427 157.098 30.0907 156.564 29.152C156.052 28.192 155.327 27.4667 154.388 26.976C153.45 26.4853 152.34 26.24 151.06 26.24H145.364V21.312H151.092C152.842 21.312 154.452 21.5893 155.924 22.144C157.396 22.6773 158.676 23.4453 159.764 24.448C160.852 25.4507 161.695 26.6453 162.292 28.032C162.911 29.4187 163.22 30.9547 163.22 32.64C163.22 34.3467 162.911 35.8933 162.292 37.28C161.695 38.6667 160.852 39.8613 159.764 40.864C158.676 41.8667 157.396 42.6453 155.924 43.2C154.474 43.7333 152.884 44 151.156 44H145.62ZM141.748 44V21.312H147.476V44H141.748ZM166.732 44V21.312H172.46V44H166.732ZM171.276 44V39.072H182.22V44H171.276ZM185.528 44V21.312H191.256V44H185.528ZM190.072 44V39.168H202.36V44H190.072ZM190.072 34.784V30.08H201.208V34.784H190.072ZM190.072 26.144V21.312H202.168V26.144H190.072Z" fill="white"/>
<path d="M206.231 44V21.312H210.359L219.063 34.464H217.111L225.783 21.312H229.911V44H224.247V30.784L225.143 31.04L219.927 38.88H216.215L211.031 31.04L211.927 30.784V44H206.231ZM232.926 44L241.726 21.312H247.262L255.966 44H249.982L243.422 24.928H245.502L238.782 44H232.926ZM238.27 40.032V35.488H250.782V40.032H238.27ZM258.73 44V21.312H262.73L264.458 25.952V44H258.73ZM274.378 44L261.13 27.168L262.73 21.312L276.01 38.144L274.378 44ZM274.378 44L272.906 39.232V21.312H278.634V44H274.378Z" fill="#216FFF"/>
<defs>
<clipPath id="clip0_73_17">
<rect width="64" height="64" fill="white"/>
</clipPath>
</defs>
</svg>
