<svg width="112" height="24" viewBox="0 0 112 24" fill="none" xmlns="http://www.w3.org/2000/svg">
<path d="M12.0001 17.27L16.1501 19.78C16.9101 20.24 17.8401 19.56 17.6401 18.7L16.5401 13.98L20.2101 10.8C20.8801 10.22 20.5201 9.12001 19.6401 9.05001L14.8101 8.64001L12.9201 4.18001C12.5801 3.37001 11.4201 3.37001 11.0801 4.18001L9.19007 8.63001L4.36007 9.04001C3.48007 9.11001 3.12007 10.21 3.79007 10.79L7.46007 13.97L6.36007 18.69C6.16007 19.55 7.09007 20.23 7.85007 19.77L12.0001 17.27Z" fill="#216FFF"/>
<path d="M34.0001 17.27L38.1501 19.78C38.9101 20.24 39.8401 19.56 39.6401 18.7L38.5401 13.98L42.2101 10.8C42.8801 10.22 42.5201 9.12001 41.6401 9.05001L36.8101 8.64001L34.9201 4.18001C34.5801 3.37001 33.4201 3.37001 33.0801 4.18001L31.1901 8.63001L26.3601 9.04001C25.4801 9.11001 25.1201 10.21 25.7901 10.79L29.4601 13.97L28.3601 18.69C28.1601 19.55 29.0901 20.23 29.8501 19.77L34.0001 17.27Z" fill="#216FFF"/>
<path d="M56.0001 17.27L60.1501 19.78C60.9101 20.24 61.8401 19.56 61.6401 18.7L60.5401 13.98L64.2101 10.8C64.8801 10.22 64.5201 9.12001 63.6401 9.05001L58.8101 8.64001L56.9201 4.18001C56.5801 3.37001 55.4201 3.37001 55.0801 4.18001L53.1901 8.63001L48.3601 9.04001C47.4801 9.11001 47.1201 10.21 47.7901 10.79L51.4601 13.97L50.3601 18.69C50.1601 19.55 51.0901 20.23 51.8501 19.77L56.0001 17.27Z" fill="#216FFF"/>
<path d="M78.0001 17.27L82.1501 19.78C82.9101 20.24 83.8401 19.56 83.6401 18.7L82.5401 13.98L86.2101 10.8C86.8801 10.22 86.5201 9.12001 85.6401 9.05001L80.8101 8.64001L78.9201 4.18001C78.5801 3.37001 77.4201 3.37001 77.0801 4.18001L75.1901 8.63001L70.3601 9.04001C69.4801 9.11001 69.1201 10.21 69.7901 10.79L73.4601 13.97L72.3601 18.69C72.1601 19.55 73.0901 20.23 73.8501 19.77L78.0001 17.27Z" fill="#216FFF"/>
<path d="M100 17.27L104.15 19.78C104.91 20.24 105.84 19.56 105.64 18.7L104.54 13.98L108.21 10.8C108.88 10.22 108.52 9.12001 107.64 9.05001L102.81 8.64001L100.92 4.18001C100.58 3.37001 99.4201 3.37001 99.0801 4.18001L97.1901 8.63001L92.3601 9.04001C91.4801 9.11001 91.1201 10.21 91.7901 10.79L95.4601 13.97L94.3601 18.69C94.1601 19.55 95.0901 20.23 95.8501 19.77L100 17.27Z" fill="#216FFF"/>
</svg>
