<svg width="64" height="64" viewBox="0 0 64 64" fill="none" xmlns="http://www.w3.org/2000/svg">
<rect width="64" height="64" rx="6" fill="#216FFF" fill-opacity="0.15"/>
<rect x="23.5151" y="27.6013" width="3.02314" height="11.1095" transform="rotate(45 23.5151 27.6013)" fill="#216FFF"/>
<rect x="19.8047" y="35.6021" width="3.06071" height="7.07671" transform="rotate(135 19.8047 35.6021)" fill="#216FFF"/>
<rect x="28.8745" y="32.6055" width="3.06071" height="7.31513" transform="rotate(135 28.8745 32.6055)" fill="#216FFF"/>
<rect x="42.4365" y="14.7266" width="3.02314" height="25.042" transform="rotate(45 42.4365 14.7266)" fill="#216FFF"/>
<path d="M43.5906 30.7266C43.5906 39.5631 36.4271 46.7266 27.5906 46.7266C18.754 46.7266 11.5906 39.5631 11.5906 30.7266C11.5906 21.89 18.754 14.7266 27.5906 14.7266C36.4271 14.7266 43.5906 21.89 43.5906 30.7266ZM15.7032 30.7266C15.7032 37.2918 21.0253 42.614 27.5906 42.614C34.1558 42.614 39.478 37.2918 39.478 30.7266C39.478 24.1613 34.1558 18.8392 27.5906 18.8392C21.0253 18.8392 15.7032 24.1613 15.7032 30.7266Z" fill="white"/>
<rect x="38.3323" y="39.7266" width="7.94287" height="2.46363" transform="rotate(45 38.3323 39.7266)" fill="white"/>
<rect x="42.9331" y="42.7003" width="13.4016" height="4.76449" transform="rotate(45 42.9331 42.7003)" fill="#216FFF"/>
<path d="M47.5296 11.6866L45.4805 19.3342L39.882 13.7358L47.5296 11.6866Z" fill="#216FFF"/>
</svg>
