<svg width="64" height="64" viewBox="0 0 64 64" fill="none" xmlns="http://www.w3.org/2000/svg">
<rect width="64" height="64" rx="6" fill="white"/>
<path d="M44.23 27.06C45.145 27.165 45.4075 28.26 44.755 28.915L42.3175 31.3525C41.6107 32.0593 41.2136 33.0179 41.2136 34.0175C41.2136 34.5124 41.3111 35.0025 41.5005 35.4598C41.6899 35.917 41.9675 36.3325 42.3175 36.6825C42.6675 37.0325 43.083 37.3101 43.5402 37.4995C43.9975 37.6889 44.4876 37.7864 44.9825 37.7864C45.9821 37.7864 46.9407 37.3893 47.6475 36.6825L50.085 34.245C50.7375 33.5925 51.835 33.855 51.94 34.77C52.1141 36.2558 51.9064 37.7614 51.3365 39.1445C50.7666 40.5276 49.8533 41.7424 48.683 42.6742C47.5127 43.606 46.1241 44.2239 44.6485 44.4694C43.1728 44.715 41.659 44.5801 40.25 44.0775L33.435 50.895C33.085 51.245 32.6695 51.5226 32.2123 51.712C31.755 51.9014 31.2649 51.9989 30.77 51.9989C30.2751 51.9989 29.785 51.9014 29.3277 51.712C28.8705 51.5226 28.455 51.245 28.105 50.895C27.755 50.545 27.4774 50.1295 27.288 49.6723C27.0986 49.215 27.0011 48.7249 27.0011 48.23C27.0011 47.7351 27.0986 47.245 27.288 46.7877C27.4774 46.3305 27.755 45.915 28.105 45.565L34.92 38.75C34.4173 37.3408 34.2824 35.8267 34.5281 34.3508C34.7737 32.875 35.3918 31.4862 36.3239 30.3158C37.256 29.1454 38.4712 28.2322 39.8547 27.6625C41.2381 27.0928 42.7441 26.8854 44.23 27.06Z" fill="black"/>
<path d="M44.23 27.06C45.145 27.165 45.4075 28.26 44.755 28.915L42.3175 31.3525C41.6107 32.0593 41.2136 33.0179 41.2136 34.0175C41.2136 34.5124 41.3111 35.0025 41.5005 35.4598C41.6899 35.917 41.9675 36.3325 42.3175 36.6825C42.6675 37.0325 43.083 37.3101 43.5402 37.4995C43.9975 37.6889 44.4876 37.7864 44.9825 37.7864C45.9821 37.7864 46.9407 37.3893 47.6475 36.6825L50.085 34.245C50.7375 33.5925 51.835 33.855 51.94 34.77C52.1141 36.2558 51.9064 37.7614 51.3365 39.1445C50.7666 40.5276 49.8533 41.7424 48.683 42.6742C47.5127 43.606 46.1241 44.2239 44.6485 44.4694C43.1728 44.715 41.659 44.5801 40.25 44.0775L33.435 50.895C33.085 51.245 32.6695 51.5226 32.2123 51.712C31.755 51.9014 31.2649 51.9989 30.77 51.9989C30.2751 51.9989 29.785 51.9014 29.3277 51.712C28.8705 51.5226 28.455 51.245 28.105 50.895C27.755 50.545 27.4774 50.1295 27.288 49.6723C27.0986 49.215 27.0011 48.7249 27.0011 48.23C27.0011 47.7351 27.0986 47.245 27.288 46.7877C27.4774 46.3305 27.755 45.915 28.105 45.565L34.92 38.75C34.4173 37.3408 34.2824 35.8267 34.5281 34.3508C34.7737 32.875 35.3918 31.4862 36.3239 30.3158C37.256 29.1454 38.4712 28.2322 39.8547 27.6625C41.2381 27.0928 42.7441 26.8854 44.23 27.06Z" fill="#216FFF"/>
<path d="M20.75 14.5C19.0924 14.5 17.5027 15.1585 16.3306 16.3306C15.1585 17.5027 14.5 19.0924 14.5 20.75V38.25C14.5 39.9076 15.1585 41.4973 16.3306 42.6694C17.5027 43.8415 19.0924 44.5 20.75 44.5H25.73C25.9141 44.252 26.1163 44.0181 26.335 43.8L28.135 42H20.75C19.7554 42 18.8016 41.6049 18.0983 40.9017C17.3951 40.1984 17 39.2446 17 38.25V24.5H42V24.565C42.8311 24.4754 43.6696 24.4788 44.5 24.575V20.75C44.5 19.0924 43.8415 17.5027 42.6694 16.3306C41.4973 15.1585 39.9076 14.5 38.25 14.5H20.75Z" fill="black"/>
<path d="M20.75 14.5C19.0924 14.5 17.5027 15.1585 16.3306 16.3306C15.1585 17.5027 14.5 19.0924 14.5 20.75V38.25C14.5 39.9076 15.1585 41.4973 16.3306 42.6694C17.5027 43.8415 19.0924 44.5 20.75 44.5H25.73C25.9141 44.252 26.1163 44.0181 26.335 43.8L28.135 42H20.75C19.7554 42 18.8016 41.6049 18.0983 40.9017C17.3951 40.1984 17 39.2446 17 38.25V24.5H42V24.565C42.8311 24.4754 43.6696 24.4788 44.5 24.575V20.75C44.5 19.0924 43.8415 17.5027 42.6694 16.3306C41.4973 15.1585 39.9076 14.5 38.25 14.5H20.75Z" fill="black"/>
<path d="M27.885 29.135C28.0012 29.0188 28.0934 28.8808 28.1563 28.729C28.2192 28.5771 28.2516 28.4144 28.2516 28.25C28.2516 28.0856 28.2192 27.9229 28.1563 27.771C28.0934 27.6192 28.0012 27.4812 27.885 27.365C27.7688 27.2488 27.6308 27.1566 27.479 27.0937C27.3271 27.0308 27.1644 26.9984 27 26.9984C26.8356 26.9984 26.6729 27.0308 26.521 27.0937C26.3692 27.1566 26.2312 27.2488 26.115 27.365L21.115 32.365C20.9986 32.4811 20.9062 32.6191 20.8432 32.7709C20.7802 32.9228 20.7478 33.0856 20.7478 33.25C20.7478 33.4144 20.7802 33.5772 20.8432 33.7291C20.9062 33.8809 20.9986 34.0189 21.115 34.135L26.115 39.135C26.3497 39.3697 26.6681 39.5016 27 39.5016C27.3319 39.5016 27.6503 39.3697 27.885 39.135C28.1197 38.9003 28.2516 38.5819 28.2516 38.25C28.2516 37.9181 28.1197 37.5997 27.885 37.365L23.7675 33.25L27.885 29.135Z" fill="black"/>
<path d="M27.885 29.135C28.0012 29.0188 28.0934 28.8808 28.1563 28.729C28.2192 28.5771 28.2516 28.4144 28.2516 28.25C28.2516 28.0856 28.2192 27.9229 28.1563 27.771C28.0934 27.6192 28.0012 27.4812 27.885 27.365C27.7688 27.2488 27.6308 27.1566 27.479 27.0937C27.3271 27.0308 27.1644 26.9984 27 26.9984C26.8356 26.9984 26.6729 27.0308 26.521 27.0937C26.3692 27.1566 26.2312 27.2488 26.115 27.365L21.115 32.365C20.9986 32.4811 20.9062 32.6191 20.8432 32.7709C20.7802 32.9228 20.7478 33.0856 20.7478 33.25C20.7478 33.4144 20.7802 33.5772 20.8432 33.7291C20.9062 33.8809 20.9986 34.0189 21.115 34.135L26.115 39.135C26.3497 39.3697 26.6681 39.5016 27 39.5016C27.3319 39.5016 27.6503 39.3697 27.885 39.135C28.1197 38.9003 28.2516 38.5819 28.2516 38.25C28.2516 37.9181 28.1197 37.5997 27.885 37.365L23.7675 33.25L27.885 29.135Z" fill="black"/>
<path d="M34.3275 28.81L32.885 27.365C32.7688 27.2488 32.6308 27.1566 32.479 27.0937C32.3271 27.0308 32.1644 26.9984 32 26.9984C31.8356 26.9984 31.6729 27.0308 31.521 27.0937C31.3692 27.1566 31.2312 27.2488 31.115 27.365C30.9988 27.4812 30.9066 27.6192 30.8437 27.771C30.7808 27.9229 30.7484 28.0856 30.7484 28.25C30.7484 28.4144 30.7808 28.5771 30.8437 28.729C30.9066 28.8808 30.9988 29.0188 31.115 29.135L32.9775 30.995C33.3375 30.2267 33.7875 29.4983 34.3275 28.81Z" fill="black"/>
<path d="M34.3275 28.81L32.885 27.365C32.7688 27.2488 32.6308 27.1566 32.479 27.0937C32.3271 27.0308 32.1644 26.9984 32 26.9984C31.8356 26.9984 31.6729 27.0308 31.521 27.0937C31.3692 27.1566 31.2312 27.2488 31.115 27.365C30.9988 27.4812 30.9066 27.6192 30.8437 27.771C30.7808 27.9229 30.7484 28.0856 30.7484 28.25C30.7484 28.4144 30.7808 28.5771 30.8437 28.729C30.9066 28.8808 30.9988 29.0188 31.115 29.135L32.9775 30.995C33.3375 30.2267 33.7875 29.4983 34.3275 28.81Z" fill="#216FFF"/>
<path d="M34.3275 28.81L32.885 27.365C32.7688 27.2488 32.6308 27.1566 32.479 27.0937C32.3271 27.0308 32.1644 26.9984 32 26.9984C31.8356 26.9984 31.6729 27.0308 31.521 27.0937C31.3692 27.1566 31.2312 27.2488 31.115 27.365C30.9988 27.4812 30.9066 27.6192 30.8437 27.771C30.7808 27.9229 30.7484 28.0856 30.7484 28.25C30.7484 28.4144 30.7808 28.5771 30.8437 28.729C30.9066 28.8808 30.9988 29.0188 31.115 29.135L32.9775 30.995C33.3375 30.2267 33.7875 29.4983 34.3275 28.81Z" fill="black"/>
</svg>
