<svg width="64" height="64" viewBox="0 0 64 64" fill="none" xmlns="http://www.w3.org/2000/svg">
<rect width="64" height="64" rx="6" fill="#216FFF" fill-opacity="0.15"/>
<path fill-rule="evenodd" clip-rule="evenodd" d="M49.6833 42.6L42.6 49.6833L33.9333 41.0167L36.8833 38.0667L38.55 39.7333L42.6667 35.6L45.0333 37.9667L42.6 40.3333L44.3667 42L46.7333 39.6667L49.6833 42.6ZM23.0167 30.05L14.3167 21.4L21.4 14.3167L24.3333 17.2667L20.2167 21.4L22 23.1666L26.1 19.0333L28.4667 21.4L26.1 23.75L27.7666 25.4167L23.0167 30.05Z" fill="#216FFF"/>
<path fill-rule="evenodd" clip-rule="evenodd" d="M49.6833 42.6L42.6 49.6833L33.9333 41.0167L36.8833 38.0667L38.55 39.7333L42.6667 35.6L45.0333 37.9667L42.6 40.3333L44.3667 42L46.7333 39.6667L49.6833 42.6ZM23.0167 30.05L14.3167 21.4L21.4 14.3167L24.3333 17.2667L20.2167 21.4L22 23.1666L26.1 19.0333L28.4667 21.4L26.1 23.75L27.7666 25.4167L23.0167 30.05Z" fill="white" fill-opacity="0.2"/>
<path d="M17 40.75V47H23.25L41.6833 28.55L35.4333 22.3L17 40.75Z" fill="#216FFF"/>
<path d="M17 40.75V47H23.25L41.6833 28.55L35.4333 22.3L17 40.75Z" fill="white"/>
<path d="M46.5166 23.6667C47.1666 23.0167 47.1666 22 46.5166 21.3167L42.6167 17.4833C42 16.8333 40.9166 16.8333 40.2666 17.4833L37.2 20.5333L43.45 26.7833L46.5166 23.6667Z" fill="#216FFF"/>
<path d="M46.5166 23.6667C47.1666 23.0167 47.1666 22 46.5166 21.3167L42.6167 17.4833C42 16.8333 40.9166 16.8333 40.2666 17.4833L37.2 20.5333L43.45 26.7833L46.5166 23.6667Z" fill="white"/>
</svg>
